<svg width="111" height="62" viewBox="0 0 111 62" fill="none" xmlns="http://www.w3.org/2000/svg">
<path d="M36.5 30.7596C36.5 32.2821 37.1365 33.7423 38.2694 34.8188C39.4023 35.8954 40.9388 36.5002 42.541 36.5002L90.3855 36.5002L74.5178 51.5788C73.4508 52.667 72.8698 54.1064 72.8975 55.5936C72.9251 57.0808 73.5591 58.4997 74.6659 59.5515C75.7727 60.6033 77.2659 61.2057 78.8309 61.232C80.3959 61.2582 81.9106 60.7062 83.0558 59.6922L109.233 34.8163C110.365 33.7399 111 32.2809 111 30.7596C111 29.2384 110.365 27.7793 109.233 26.703L83.0558 1.8271C82.5027 1.26309 81.8358 0.810717 81.0948 0.49696C80.3537 0.183203 79.5538 0.0144917 78.7427 0.000891991C77.9316 -0.0127077 77.1259 0.129081 76.3737 0.417802C75.6214 0.706522 74.9381 1.13626 74.3645 1.68138C73.7909 2.22649 73.3386 2.87582 73.0348 3.59062C72.731 4.30543 72.5818 5.07106 72.5961 5.84185C72.6104 6.61264 72.7879 7.3728 73.1181 8.07697C73.4483 8.78114 73.9243 9.41491 74.5178 9.94045L90.3855 25.019L42.541 25.019C39.2064 25.019 36.5 27.5908 36.5 30.7596Z" fill="#5D1E29"/>
<rect y="25" width="73" height="11.52" rx="5.76" fill="#5D1E29"/>
</svg>
